<svg xmlns="http://www.w3.org/2000/svg" viewBox="0 0 102 100">
    <defs>
        <style>.cls-1{fill:#273582;opacity:0.47;}</style>
    </defs>
    <g id="Capa_2" data-name="Capa 2">
        <g id="Capa_1-2" data-name="Capa 1">
            <path class="cls-1" d="M0,50c0,1.62.09,3.22.24,4.81a9.15,9.15,0,0,1,14.38,2.12l5-1.73a6.37,6.37,0,0,1-.08-1,6,6,0,0,1,.84-3.06L1.54,37.84A48.76,48.76,0,0,0,0,50Z"/>
            <path class="cls-1" d="M59.76,91.26,48.1,75.08a6.27,6.27,0,0,1-8.82-1.65l-6.8,5a4.41,4.41,0,0,1-8.81-.06,4.75,4.75,0,0,1,.1-.94L14.22,66.5a9.08,9.08,0,0,1-9.84,3.77A51,51,0,0,0,51,100a51.88,51.88,0,0,0,5.47-.29,8.16,8.16,0,0,1-.25-1.93A7.78,7.78,0,0,1,59.76,91.26Z"/>
            <path class="cls-1" d="M66.75,69.94l-.49,0L65.6,90.17a7.8,7.8,0,0,1,5.91,5.61A51.15,51.15,0,0,0,90.29,81.87a4.6,4.6,0,0,1-4.4-4.59,4.68,4.68,0,0,1,.28-1.55L73,64.88A6.4,6.4,0,0,1,66.75,69.94Z"/>
            <path class="cls-1" d="M60.33,44.33A8.29,8.29,0,0,1,55.87,43l-5.74,5.73A3.94,3.94,0,0,1,51,51.22a4,4,0,0,1-4,4h0L46.44,64a6.27,6.27,0,0,1,2.78,10.1L61.11,90.56A7.71,7.71,0,0,1,64,90h.1l.67-20.37A6.42,6.42,0,1,1,70,58l5.5-5a5,5,0,0,1-.77-5.79l-7.37-6.62A8.33,8.33,0,0,1,60.33,44.33Z"/>
            <path class="cls-1" d="M93,21.64l-11.79,9a3,3,0,0,1,.25,1.21,3.17,3.17,0,1,1-3.75-3.1l.6-16.39a3.72,3.72,0,0,1-2.55-1.44L69.2,16.24a2.88,2.88,0,1,1-4.6,3.29L58.42,21.6a1.79,1.79,0,0,1,0,.23A1.6,1.6,0,0,1,58,22.9l1.87,4.79.43,0A8.33,8.33,0,0,1,68.67,36a8.44,8.44,0,0,1-.56,3l7.57,6.8a5.14,5.14,0,1,1,3.57,8.83,5,5,0,0,1-2.59-.73l-5.47,5a6.41,6.41,0,0,1,2,4.06L87,74.36a4.59,4.59,0,0,1,7.84,1.26,49.11,49.11,0,0,0-1.81-54Z"/>
            <path class="cls-1" d="M82,10.31a3.71,3.71,0,0,1-2.37,1.95L79,28.76a3.11,3.11,0,0,1,1.23.62l11.83-9A50.62,50.62,0,0,0,82,10.31Z"/>
            <path class="cls-1" d="M75,8.69a3.66,3.66,0,0,1,.86-2.34,51.78,51.78,0,0,0-59,6.54l3.39,5.87a9.62,9.62,0,0,1,3.45-.65,9.51,9.51,0,0,1,6.39,2.47L41.4,11.7a5.72,5.72,0,1,1,4.88,2.74,5.36,5.36,0,0,1-1.39-.19L42.51,39a3.81,3.81,0,0,1,1,6l1.56,2.71a3.85,3.85,0,0,1,4,0l5.67-5.68a8.32,8.32,0,0,1,4.2-14.3l-1.71-4.39a1.84,1.84,0,0,1-.33,0,1.61,1.61,0,1,1,0-3.22A1.57,1.57,0,0,1,58,20.7l6.39-2.14a1.81,1.81,0,0,1,0-.23,2.9,2.9,0,0,1,2.89-2.89,2.76,2.76,0,0,1,1.11.23L75.25,10A3.82,3.82,0,0,1,75,8.69Z"/>
            <path class="cls-1" d="M40.73,46.22a3.84,3.84,0,0,1,0-7.68,3,3,0,0,1,.31,0l2.4-24.91a5.68,5.68,0,0,1-1.1-.79L31.1,21.67a9.55,9.55,0,0,1-7.16,15.54V48.45a5.82,5.82,0,0,1,1.62-.23,6,6,0,0,1,6,5.45L36,53.21a1.51,1.51,0,0,1,1.41-1,1.48,1.48,0,0,1,1.27.72l4.56-.47a3.88,3.88,0,0,1,1-4.13L42.7,45.66A3.8,3.8,0,0,1,40.73,46.22Z"/>
            <path class="cls-1" d="M43.67,53.43l-4.8.49a1.5,1.5,0,0,1-1.48,1.3,1.48,1.48,0,0,1-1.41-1l-4.45.46a6,6,0,0,1-11.47,2l-4.82,1.67A9.08,9.08,0,0,1,15,65.1l9.44,10.8a4.39,4.39,0,0,1,7.75.89l6.42-4.72a6.25,6.25,0,0,1,5.9-8.4c.21,0,.42,0,.62,0L45.63,55A4,4,0,0,1,43.67,53.43Z"/>
            <path class="cls-1" d="M19,19.33l-3.18-5.52a49.87,49.87,0,0,0-7.46,8.82l6.11,2.42A9.58,9.58,0,0,1,19,19.33Z"/>
            <path class="cls-1" d="M14.11,27.67A8.75,8.75,0,0,1,14.27,26L7.8,23.48A49.32,49.32,0,0,0,2,36.3L21.32,50a6.72,6.72,0,0,1,1.12-.87v-12A9.56,9.56,0,0,1,14.11,27.67Z"/>
        </g>
    </g>
</svg>